# xmcd
#
# Track frame offsets:
#	182
#	23440
#	47702
#	68257
#	86775
#	102645
#	123945
#	150382
#	170945
#	189930
#
# Disc length: 2799 seconds
#
# Revision: 2
# Processed by: cddbd v1.5.1PL0 Copyright (c) Steve Scherf et al.
# Submitted via: dBpowerAMP V4.0
#
DISCID=760aed0a
DTITLE=Johnny Nash - Here Again
DYEAR=1986
DGENRE=Reggae
TTITLE0=Born To Sing
TTITLE1=Precious Lady
TTITLE2=Rock Me Baby
TTITLE3=Island Girl
TTITLE4=Baby You're Mine
TTITLE5=Mansion In Sky
TTITLE6=Here Again
TTITLE7=We Got Troubles
TTITLE8=Now You're Gone
TTITLE9=Never Going Back
EXTD=042282941220
EXTT0=
EXTT1=
EXTT2=
EXTT3=
EXTT4=
EXTT5=
EXTT6=
EXTT7=
EXTT8=
EXTT9=
PLAYORDER=
